<mxfile host="app.diagrams.net" agent="Mozilla/5.0 (X11; Linux x86_64) AppleWebKit/537.36 (KHTML, like Gecko) Chrome/131.0.0.0 Safari/537.36" version="26.0.5">
  <diagram name="Page-1" id="aItd0uf9Fkhzo1kurZ83">
    <mxGraphModel dx="574" dy="1414" grid="1" gridSize="10" guides="1" tooltips="1" connect="1" arrows="1" fold="1" page="1" pageScale="1" pageWidth="850" pageHeight="1100" math="0" shadow="0">
      <root>
        <mxCell id="0" />
        <mxCell id="1" parent="0" />
        <mxCell id="XIHXmzrnx7aPzLWd52Pc-2" style="edgeStyle=orthogonalEdgeStyle;rounded=0;orthogonalLoop=1;jettySize=auto;html=1;" edge="1" parent="1" source="XIHXmzrnx7aPzLWd52Pc-1">
          <mxGeometry relative="1" as="geometry">
            <mxPoint x="356.74" y="80" as="targetPoint" />
          </mxGeometry>
        </mxCell>
        <mxCell id="XIHXmzrnx7aPzLWd52Pc-1" value="" style="shape=image;verticalLabelPosition=bottom;labelBackgroundColor=default;verticalAlign=top;aspect=fixed;imageAspect=0;image=data:image/png,iVBORw0KGgoAAAANSUhEUgAAAQUAAADTCAIAAAAH5JFAAAAAA3NCSVQICAjb4U/gAAAgAElEQVR4Xu1dB1QUydNXiQrqmVAxIeaAGM+EiIoRMyY8M3J65qyYzuwpf+88T0XPnHPO8cxiQEVQBANJooCBDKLfz1u/vXW7p2d2NoLD2+d7VldXV/9marq7uro6b1paWh7pT0JAQuBfBPJJOEgISAjIEZDsQXoZJAT+Q0CyB+ltkBCQ7EF6ByQEaAgY04gs2qdPnx4/fnz16lVfX9/g4ODIyMjk5OT09HRWHcFlFhYWrVu3/u2332xtbXkr7dq1a8WKFdAhOzubl1liMHwE8ubNa2lpWaJEiZo1azZu3Lhjx461atXSsdp5hfuXwsPDN27cuHfv3oiICK1qaWVl5ePjU7p0aUYra9eunTx5MoNBKsoFCDRs2HD8+PGurq4wFd10R5A9YBBYsGDBnj17srKydKPW2LFjly9fztVWRkZGhQoV3r9/z8Ug0XMTAhgrvL29a9SooYNO8cyXPn/+vGbNmoULF3748EEH2sibuHf3XvL7JK4WAwMDJWPgAif30e/cuePg4LB69Wo3Nzdt945lDwkJCcOHDz979qy2lSDlm5mYhb4IJ+kySvK7FK4iiZ4rEUhNTXV3d8cLOWbMGK12kNPfGhYW1qpVK70YAzrcsUMnRrdLlLBqWL8hg0Eqyn0IYKoybdq0ffv2abVrdHuAMbRp0+b58+dabZsqHCunQT8NbuPUhloqJ86bPd+2Ir8Pii1EKs1ZCMAkRo4c+eTJE+2pTVlPY1TCyMBrDMbGxtWr1ahoU7FYkaImpqYaUdHSwqJxoyaVbCsJkZb1MevGzeshoaEfsz8K4Zd4DAqBjPSMjx+VHtxn+O5fhb4KDApk+NDr169//fr1fPnon3I1+6hsDzDBHj16nDt3jiHX3s6+V8/ejg6OBfIXYLBJRRICDATwxicmJOJ9I3kSExMPHj1w4swJbHaRpaBs3rxZS2trZXvAKn7q1KlUJUAsV7bc1InTmjZuysUg0SUEhCOQnp72gduL6Ofvt2j5QqykSYHVqlV79OgRSVef8o09REVF1atXj8u12q5Nu1nTZxcoII0J6sMuSfgXgc95MBQQs6b/wPF/4j9r/kzq3Omff/5p0qSJxnH8ZhKGTTcuY+jj2nfRvMWSMWj8AXzXAvPmyZ8/PwMBu1p2Pbr0oDKcOHGCSleT+J89IAoDO9BUcRgZpkyYorM9c6oOEjFXImBmbsbuV68evU1p3pobN26wK4or/c8eNm3alJmZSUopW6YcpkmSMZDISBT1EYCbyMjIiCGnoGXB+vb1SYagoCCSqD7lqz1gmc81OEybNE2aJqkPtCSBCwG2PaBWlcpVyLoI2OGa25PMwilf7QEh3AhfJavVqV1H8iaRsEgUDSLAO/UoaFmI2pw2oku/2gPOM1CbxD4DlS4RJQQ0hQB1C0JReFo6xeUKBuwIa0oHuZyv9vDgwQNStLGRcUuHliRdokgIaBABrk03eROhYaFkc5jDFy5cmKSrSflqD9TVCXY9pJWDmvhK1dkIYHBg7D+gLhj8Ah6TQqpWrUoS1ad8tQfsxJGybG1sSaJEkRDQIAJUl6aifAwOiYkJZIs//vgjSVSf8tUeEEdFyipSpAhJlCgSAhpEIDOD4uJXlO/7yJfaHEJOqXQ1iV/tgXqK2syUZ69Ezbal6hICvOOD70OKPWAlrV17oK/xdXWIW3otvk8EEJhEjU2So4HP9NNnlNMOmCxpYzGNdr+OD9/n85B6rV8EeCdLfgF+1NV227ZttaS5ZA9aAlYSy49ARmYGm+kBbbKEKu3atWNXFF0q2YNo6KSKaiGAKXpWJk/6Iupiunjx4nXr1lWrbe7Kkj1wYyOVaBMBRFvQV63/32hk1OuY2BhSBWdnZy0dFkVbkj2QgEsUXSDAu3jwfUSJmYBm2pssSfagiwcvtUFFQJynFSMDxgeqQI0QpfFBIzBKQlRDIPtTNtVxJJeSmZXp/4QSpmFvb4+Ex6o1pgo3K0Lw4uWLr0JeqSJN4pUQEITAp0/Z7MV0SmoqsvSSsrTnaZW1xbKHkNBX+JE6SRQJAX0h0L59e602/TW/BvtYt1Y1kIRLCAhEAHvSr1+/1saxB7kC0vpB4LOQ2PSPgJOTk1aNAT2U7EH/j1nSQCACWvW0ynSQ7EHgs5DY9IwAjllrezEtjQ96fsZS88IRwP1A5cqVE84vjpPlXyperFjx4sXEyZVqSQhQEfgSo0HLYSxn/pCUFB0TS9bV6jacvDmWPXgMGzJzqnRnIfloJIp4BLCrwD7zsPR/v69cvZZsQAeLBzQqrR9I5CWKFhHgzaZx+eo1snnktWjevDlJ1zhFsgeNQyoJ5EQAxsCOaY2PT/APoByIc3R0NDc355SruQLJHjSHpSSJDwH2TAm1r1y/QTUY3SweoIBkD3zPUCrXHAK89vDPNcpkCe3rZvEg2YPmHrUkiQ8BfPjZiweUXrlGyWJvY2NTpQolpTFfg2LKpfFBDGpSHREIZHNcBicX9TjgSXwCJfWYzgYHaMLyt6ra59S0tPCI19RUTqqK0gE/1mfly5W10MT1X7Fxb+Li4j5mZ+tAbaUmjI2McB6gVEkrrTYd9wYdfJOlfB2oam1+zMpiQ3TwyDGqRFtbW4TxWVtba++YqLxdDdgDJoUHDh/dsmPn3fv3P37UwztBBVEIEfg2ql9/0AA3t969TUxUhiImJnbN3xsOHT0e8fq1kOa0x1O2jHXPbl1Hj/CwLl1ag634Pny0eduO85cuxcTGaVCsqqJm/PuH4NamTZu6uLj07du3YMGCqgoRyM+K9/acOpl3Pw4nJIaO+OXBIz+B7RkmW+2aNbb87V1dlRS523bunjHn1+SUFMPpEca6xfPmug8ZpL5KGBAmTvc8fvK0+qI0LsHS0nLcuHGTJ0/WRrJttdYPz4KD23TqktONAQ8s4GlgW5duDwVb9RKvFWMmTTEoY0AvcKZswrQZ8xYvVfMVxDy+eet2hmkM6BpyDS9ZsgQX4d6/f1/NnpLVxdtDUnJynwGDqQsgshnDp7x7/95tyLDEt295VT109NhSrxW8bPpiWPHnX3v2HxTd+vMXL7v06hMTS4kgEi1TGxVxnRU2JQ4cOKBZ4eLtYcXKVSGhYZrVRr/SIqOilyznedGTk1OmzJytXz15W58+Zy4uV+NlIxmQE2nQ8BGJifwfBbKu7ikIhRo2bNjx48c12LRIe0hLS9+wdZsG9TAQUdt27Wa/Sbv370dMgYFoy6XG27fvtu+mX53MVUVG37Bla8DTp2wegypFkg53d/cXL15oSiuR9nDj1u0PH5I0pYThyElPT798hb5FKlPy+KkzhqMtQ5OTp88ySqlF8BOuWruOWmTIRCwnMEpQozxEqK2yk1HWxpPAQGpjXdyGN3fuwntjJLWuLomA7971i4e2/kU2ig9kj66dSbqMQo02K1So0NhfxhUrqpWzIkhUhKUalz64dnbLzs3kzbOP/QO4qnDRfe7ew4yRWurQrmtrlz4WBen3fFKriCDiWETqR8rhiMyMtPDnT66f3v/61TOq2Hv37h0+fNjV1ZVaqhJRpD1g9Uk2Y2RsPGWxN/4liwyQArs9e2h7SpJyR969e8elLazoLa20e5fu+HHVUpOOOf1b5oQ+7k3sngPKsyP4vjC9NjNT4Uab23fvUVXtP2LqqFnLqUUaJ2Zkf06l5jju2LvfmLnn9v29YcmkrIx0st3ff/9dI/Ygcr5EDUQxMsKNpDnDGAAoBjFT2utC7ZrsAXCFK+fPX4B8QjqjmJvnp7bFGx+hVCuU5h0xM88/bNKvVPnaIJoa5c2Xly4Ym6cd3UbOXH0wbz7KS4sLcn18fOg1VaFSRKtSXeLNPQhQt1OsrMuZ57fQWSdhC2ZGrNYatuzUecBoKsfq1aupdJWIkj2oBFduZqYuSfPlY76eWsDDzIjnmrZeP083NjElW4bjNTIykqSrRJHsQSW4JGatIwBrYA8RRa2sHTr2JvXAQmv9+vUkXSWKZA8qwSUx6wIBM2OONcT/N95l0FiqHps3b1YzvFqyByqwElGfCGBJbcJ8MavW+bFa3cakigkJCXv37iXpwinMZoWLkTglBDSKgBmfn7LroPHUBr29val0gUSDtod3CW+WzxjRs3G57o3KLpk8LD42SmCvJLacjoBxPk7Hq6xrzdq7Fi1pTXbT39//6tWrJF0gxXDtISX5wyjXFsd3/x0X/To+NvL0gS0jezR//9bQY4cE4i6xsRHAAsKc6dkyNjFx6T+KKmTNmjVUuhCi4drDke3e4a+CFPsQ8zp0/8Y/hPRK4skFCGBvjr2sbt/Xw9SMkpTp9OnTISEh4hAwXHsI8L1FdsmfRiTZJEouQIDX8Vq4aAnHzm5kTxGYuG6dyMBEw7WHTFqYSmY6JXaFRESi5A4EeB2vXQePo/Z0+/btiHulFrGJhmsPbL2l0u8BAV7Ha8Xq9rUbOZJQIChz586dJJ2XItkDL0QSgz4RMOdzvHbhGCIwZaJGoLA7I9kDGx+pVM8IwPFqxFxWN27T1apMBVLLoKCgCxcukHQ2RbIHNj5Sqf4RYA8ROGXgwhHxunYt5R4Jdn8ke2DjI5XqHwGTfDyO13a93KlB6RgfgoODVeqAZA8qwSUx6wGBL45X5irCsnCRVt0Hkprh/Jaq4RuSPZAwShSDQwCHItg6dR44BkceSZ5du3bhiDlJ56JI9sCFjEQ3IATgeDVlvqrlK9es29yZ1DgpKWnbtm0knYvCbISrkkSXENA5AuwpE9Th2puD45VxJl6pH5I96PzBSg2KQoDX8drAsaN1Bcq1KYhlOnXqlMA2JXsQCJTEpn8E2I5XJOBwGUhPNSDc8SrZg/4fs6SBQATgeOXKRiOT0NZ1aH5LStI0nIgICBCUoE2yB4HPQmLTPwJwvJoyD0XktyjY1nUIqSgCNwQOEZI9kOhJFMNFgNfxir3qvHkpbzXOVScmJvJ2jFKTt47EICGgLwS+OF6ZQwSW1I2cOpHqIe8Gsm+QdCWKZA+8EEkMhoUA+xwpdO3MkY0G2ZmQH5/dGcke2PhIpQaHgFG+vOz8THWbOWN7jtQbl5TyXp4i2QOJm0QxdATYe3PIVM2VsIw31YBkD4b+7HWmn6mpCdlW8gdDvDvri+OV1FWB4tRtAIL8SJZbt249fPiQpMspbLGMirmi6HOu6IWGOmFVogQpKSEu5uHtKyRdvxTeiFeEf7fr7U5Vkj1EiLQHc9rNCcgAEOhHv1ODqpl+iaHPn75/G0/qYG5OSWFCsuU+Sh272tROzRvb3/fmJRFnL6nSNEVENhq2KJefRuczoriiDh48GBfHeb08M66cu8EKFcpTC0f2aGZVupxG7stKiKPc3RQU8KCPQyVq0yoR8XTfxERSw7xsOLqmkvycyNzGqaWJsXEW4YHBgxjv5ly4SHFt35elKmif+IZ36nuIa5M2btw4c+ZManMi7cGhaVOqOFx2Fh0hMhUUVaASMSszIyr8lRBO0TwtmjcTXTdHVyxerFj3Lp0PHDlK7QXGUupwSmU2cOKGDRumTJliakq5RELkfKlC+XItWzgYeLdFqNegXr2a1auLqJg7qsyaPsXMjPKW5I7eyXsRExNz6NAhaqdE2gNkzZvliYhCqtAcSsTwumAOfRjNoT1SVe1KtraLf52raq2cyM+1qhb/QjesX2+u5/SciAWXzpPGjXF0aM5V+p3QRwwfNmEMPU9wbkLA19f3zp07ZI/E2wNk4QWaM2MaX/YDslFDpEweN/bXmTMMUTOd67Rw7uz/LV2s0l29OtdRAw1Shwi17AETjGmTJpw6cqh+XXsNKKgnEXa1ah7bv2febE+qO0JPSum52RHuQ+9e+6dvL1fqJp2eldNQ80ePHo2KUr5RRKR/SVElh2ZNrp4/4+cfcOXa9VchoWnpaRpSWLtisIVS0campUPzenXtc5AlZGRmpCSnKEKTmpaqDaRsK9psXPuX1+KFeKx+AQFxb97wBsNpQw0hMuE3p7rO5XUDngQGBn1zdwKKZPcvzp8/X7EJDdiDTJy9XW38hGgv8YhDID4hfu3fa+49uMd+9uKEc9UqUuSHHt264MfFYAh0AJLOTPzu+/BRpx69SFU3bdrk6empuAOr1nyJbECiaAmB9Ix0z19n3Ll/R5fGoKW+aFws/Jz5jFhvcoN6dalTety/uG/fPkV9WFI0rrckUDQC/1y9HBWtPNkVLS33VTQxpgQjKnbTY+hgaq+VEvhJ9kBFyeCIYeFhBqeTISlkZITbtVgRTV06dSxpZUWq7Ofn9+jRIzldsgcSIkOkFClCiV42REX1p5Mxc4gwMTEZMqA/VbsTJ05I9kBFxnCJrVq0osbbaE9juArdR46uUa9Rw+YtFy3zYi9YtaeGcMnGxjwf90H93YyNKQ4kHIqQ7EE4zgbBaWVV0nPKTEsLS91oExIa2qqDy/7DR15HRgY9f75sxR+9fxqU/emTbloX1wrSarCnTMWLF2vWpDEpXDEnPsVcyAoSxRAQ+LHBj5vXbXns7/fuwzcJqx888r3lQ7mLVR2dFy9fkfj2m5NxV67fOHn6bLfOlNQV6jSk2bqwB/Y5jepVq1y7cVOpUcU8NJI9aPaJaFeaRQGLpo2Vw9FTUlI0bg8+d++SPbl9546B2wOpsxKlUCFK9j7FqaBa9nDq7LmDR44mJPCneeJVlM2QP3/+Nq1aDhnwk47n0GytcnEpdbWQxtzzCgkN896wKfj5c/YOiaWlZaf27dz69IJHyAABFG8PcxYsWrla5fu5RENw+tz5I8dPHt2353sI0BeNkr4q3rl3v3tft+RvA0m4lDlx+syZ8+d3bNpggOcFeJbkXF169PixLo1BpsaNW7c3bdvOpZJE1yMCYydNFWgMMiWPnzpz+Nh/Xk49aq7UtMjx4cLlK3rpw4VLl0f9PFwvTUuNciEAHxQZLcfFLKfjUfbq0Y2XTSUGTNUio6LevnufnZ1NrRgby5lJQMYv0h5YO4FURSRibkZA/6/Dzds+G7duu3Dpn/cfPqiDtMj5knNrJ3VaFV23bZvWoutKFbWEQBnr0jWqVVNVuKYeZUJiotuQYR269Tx45JiaxoAuiLSHunXq6P5UoUOzpu6DB6mKu8SvbQTg9f/rdy9LCwvhDSGaqKcmYshDwsKc2rtgY0R402xOkfMlCMWpwsaNGsLfGh0Ty3axsTUQUlrkhx/atHIaOlDytwpBSw88eBNu/nPB+++Ngc+CMjIzGRogqw38rf379lbfufQhKalH3/6hYZqMdBRvD+hz544d8GN0Xir6fhCwtbHxWrJIl/31nDv/5SsNJ/sSOV/SZbeltiQESARgCTv37CXpalIke1ATQKm6fhDYuXefNmbpas2X9IOE1KqEQJ48V6/foMLQw9Gqf9uSZib0D/2eizF7LsZSK8qIkj0wwJGKDBeB5y9eksq1qPPDoUV2jKhv36AkspYihW5G7DpSqYSA3hFISk4mdXCs+wPDGEh+kiLZA4mJYVHYAf2GpasOtaHCko99XbsA9SR7EACSXlmoD16vGuXmxiV7MPSnyxWaZuh650z91F1P42klJfGsUZSQwQyvYMGC6m9P5kzAVdY6+yM9VFNlQVIFAQiIt4e3795Nnz33yLET6RkZAhr6hqVwoUJDBv6EdPnSeTde6MgLrHirSAyiERBpD0hti9ARpMUU1zDiEP9c4x0TG7tx7WpxEr6TWthy+piV9Z101hC6KXL9cPrsedHGIO/2voOHg4KfGwIKBqtDRgYrNk57alO9lrnjog82aCLtwf/JE7ZcgaWakiOwuRzHlsE8wq+97lhbW5PCy5YpQxL1QkGq+jx5+G4XFaWZSHsoQbu7W4QC1DvARcjJlVUwKc1kxk5rr9eD3PopCUdS+N49u2uvReGSAcu/9qCVP5H20L2LS0FLdXPFVa5k27Txj1rpVq4QisRK+urHsMEDf/Fwl8+aChUsuPVv7/LlyulLH3m78C5o9Rshcj2N7/quLZsG/zzy7bdZ3ITjVbFChT1bNyPLrPAq3xVnZmZWRrrKjjtNQQRLWL544fAhg2/fuWthYYHkVziSpSnh4uRgeoRhQdveBZH2gC61atki4J7PpStXYmLjVNpDxc6DTflyrVo65vob+8Q9eNQCnknqnYsX3bRixapVKuOnEVFqCgEgGRkZigHeyNaaJ4/yzszHbHUXFeLtAT0sVKhgj64GfZOSmo9BX9WTPiRJ29Jy8LOzMUfKUvrm4t17+/ad0gM6fzdhgXslYyPx+T7Usgd9vS65u93UlFRqusjc3Wtq7zAgZGVlZmdT8opXrVwZSQGVaiGcu8143z6tS5pw5L73DeLJRiPZA/VB6I2YlpaWTItk1ptCemr4y0bkRyyelWdEcnVatnAg7QGl1/ze4Sdaa5H+JdHtSRUZCMChhJkSgyHXF2FSBHcqhkf8MYwBOPTr5aoNZ4xkDwbxjuFz+P7de6WLpQ1CM+0r8flznn/nRVlYMWN4hDtVyMFoJEEbNmiAxrVjzZdgrEI007hOBisQeGhDt/S0dMyRNA71l4cn5kafz9kftdJNReg+f3Gh4Z88nz5/Usk5qSjEc+rkWz53/J881eBDYdmDbOTSYGMaEZWY+PaBn9+zoOCXISFRUdFvEhLwMuHTApe5qakZImdLFC9Wtox1JduKNatXr2tfR/19Q7namr0wCu9BZkYm5kjAWSPIKAnBlIMahqROW9D20WP/p8+evXgV8vp1ZFx8/If3H5CADIZnbm6GnYoSxYpZly4N8KtVrVLP3h7PQp3m2HXzm5vv3rqp78Ch0IfNKbyUZQ/CpWibE85HbAydu3jpyrXrwbSD5FwKYK/DrlZNJ8cWndq3tbdjnTTnkqBxOswAPpOMDGy3pYv6fmtcI36BCDM7fe7CP1ev+fkHqKRzpYoVnRwd2js7N2/WxFgLF6BgX/jk4f3zFi/dsXuv6HFGsf+Gbg/hERHbd+/dd+hwXNwb/udGcODh4RHih/By7IgjTaJbn94a/2jhM892Cn2ZHHyZF8BnAtPm9JkQ6uuZgCvk9h44tGvf/hcvX4lTBWM4fpu27UCayt49ewz+qV9FGxtxorhqWRQo4LV4oceQwXhPsDuMa4rUMYy8WMGgJVxIRbY3ZcK4qRPGkXTdUJAJ9I/Va3GXjEofJF7dsCnu1tt1zMgR5cqqHK2J+ZK1bVWyiQH9Brr1diPpuqEcPHpwy47NZFuhgf7Ux0pykpTomJjV6zfs2rOPfUcWWZFNwfwNyVuRCbtO7VpsTtGlmCXidA3WJtQ/3Oi1buMmskhmBaAb4viAc0LLf/9zz4GDmrUEGQpYaWzduXv3/oPIjgyDR6Qaic73TElOSVm7fgPem9R/P5Sa/cOXG3cO4uoz3Ms4Z8Z0LPM0Kx/SEIeLPy6xlpY8ScgNy9+KOcXWnbtatO2IMVobxiCHCU699Zu2NGvV9uQZjaVK53oGOYh+4fI/uHZ6xarV2jAGOQ6wiqMnTrVo22Hdps1afcoikDcge4iNi/tpqPv02b9+0FUo25v4ePdfxoyZOIU9+xcBa46rAgOYMefXAcM8wiNe60b51NTUXxcu6ek2IDIqWjctCmnFUOZL93wfDPtltEqLZmNj41JWpYoVLZbfPL+5mTm82ZgFpqWnxb6JjU+IF/7hOXDkKHyI2zasg5dQCGS5jycsImLYiNEBT1Vw5GMlYFXcCj8sUfCH/yI6PTU9FcgDf+EeZLgN27h02bjmL1x2YwjAGoQ94KrJcVOmCTn0hKlhg7oN6tjZ29WyK2tdFncYIyA+LSUN3htFNBEmHxEZ8TTo6ZPAJwGBAR+zeRz8z1++7NDdFSbR7Ps7n4Rz8BgW4ErifR2Btn1te/s69nVq1bGpUBG5UZALB+B/+tZjlv0pOyY2JjA48MmzJ34BfvhCsSUjTLXvwCFeSxf179ObzamDUv3bA5xxs+Yt4PWR1axeq2O7jk0bN8VooIiLsYmJZWHj9JS0rMz/zhCaGJvYVrDFr3O7zknJSbfv3b549SIshAEoJmn9Bg7ZsPav9s5tGGy5rOjK9RtDfv5F7l3h6l3ZMmU7tXdp6dDyh8LfnAoyMjayKGSRmZaheHTJKJ9RmdJl8HNu6ZyRmXH/4f3L1y/j28QlHHR4oSdO84RNjhnxM4NNB0V6toctO3bNmjefyzsm63/dOnX79Oxrb2fPBQcG6/yWBYzSM9NTKZ+igpYF27Vq19ap7YPHDw4dPxQSznmjDPZZsZzY7L2mnXNrrrZyEx33eQ/5eSSmmIxO2VSw6dfLrXmT5lz54wC+WQFzIxOjtOQ08qNmZmrWvHFz/F6Gvjx4/OAjf1aCooVLl+fNk3f0CA+GPtou0qc9HD912nPuPIYxFC9W3GOIh0OzFkJQMDU3zWeULzU5hZp4AY+tgX2Denb18K3ad2RfcgolOzRawZzNY/TYA7u2/9iwgZBGcy5PwNPAwV9GBk5jwKoA+ypdOnbBNIm3mxilLQrlS01K5Vq2VbKpNH3cdEyftu3dFh3LuYBesHRZ0aJF3Hr34m1RSwx68y899Hs8euIU8osi72dLB6d1f64XaAyyWsYmxgUKWjCCdvCRwyDuNd+rdo3aXIAi3eBgj5ERryO5GHIBPe5NPFx5DK9ajWo1vFeu6965uxBjkAGSz8ioQCELrmFExoPlx9K5S1u3YA2/UzxnI0pPXyCzxoew8PBrN25qQzPMFyfPmMWVKAHP4Jfhv3Rs10lE03A6wSRSkpKpo4RMICbBnhM8j5w6ghGc2gQmssNGjpozY5pSKbZHqPzRMdEPHz+kFumAGBVNN90bt33MTE1JBQDRst9X4tQ7WSSj9Ozac8iAocItQS4HxgCTSPmQrOTeUGwIMyiPQR41q9Vcv3U93B6kDvBNeYwZ96fXMlMt5JrAK022qEhhxWuwa2qpFPEUM6fOalivoTryP2ZmpSan8kq4cuPKhh0buIZ43uq5j2aQicEAABYRSURBVAFDq8fQn7u5dFOnawjQgkkwvkcy4XBA/W/1/1LT+B+TOsoIrCv3KOhtvkRVFMawaO5iNY0Bko1NTczym1GbUCQ6OTiN9RjLmF/xSshlDON+Ga+mMQAQDCwFLArwIlOjao3Zk2eLjrDilS+OwYDsATh6Tp5Zs3pNcT1RqmWW3xzeQF5RTRo2cR/gzsv2PTAMG+Terk07jfQU3yNTM8pUTUl4xQoVp46ZCue4RhrViBADsgePoR6NGjTSSK9kQvLjKyUg80gbxzYd23TUYLs5URQswbWbqwY1hxMW7j5egRglhg0YxsumMwZ+jXWjSvOmDp07aDiVE56HGXeoo2K/+vfqX6liJd301ABbqVCuwkj3kZpVDLNQ8wKUQwRkK07NnRybOZJ0vVAMYj1duHDh9av+xsaZShBgHRwS+iroRXBMTDTOMebNl9fSwrKMddnq1aojlEO2KoA/N+W9oKPJUTFR0+dPFx54o5KqhswMp9CfXqtsbWxVVTIyKjIwKDAy6jX8tojRsChgUapU6aqVqlSyrSz3uqYmpSBrDK9kxHRMmTsl8W0iL6eWGAzr/IP7IHeVjAHAnTh9/PLVy4geowJUqmQp51bOLh06FypYyDS/GaI5qGyKROtS1l07dD188jAvZy5j6OrSTSVjwKtz9uLZ85fOhUfQfZeFChWCo6JLp67Wpa2xivuYRd/6VIQRMTiD+w7+Y90feseWNT7UqVHHviZnlISqqj8JCngQQHHSV6lU5Y9lKwU6ebBlsffAnsPHD1Nd10oqFShQQLbDyvaIy2tB+HjP8e8+ULJZOTZxrFCmgqpdNhz+qJjISzcvk/pYWlpu8d4KoMgikoLB9sz5M9t2b2Vs5MlrwTsCV9VPfQdkZ2VnCxgiUHG+1/xnwZTMAHbVa9etVY/URwTF76nf48DHZEVB40PhgoXKWZclK4ujXLpxiVqxj2tfgcaAba8lXotfhQo9y4sI+783r79z12fS6EmmxvzuDgRsurRz2XVwF6lnQmK8Q6PmJD2nUAKCAqiq4pUVaAyYkXr96XXP9y5VDknELgQ+W3fu3fGcMrNYoaIkA0np6dJzSfASkh4TF1OurWbew9AIzug1Wbs6Wk+/ff82KjaK7Gq5MuWa/igo8D0sImzq7CnCjUHeFmJmZi6c+e495atP6uPs5FwgP+VjGRzyXEg4OinQECh4NZ+9oHx3Yf+Y1QjREMG/0+dOF24McpmR0ZGe82YwYigVW0cQDTywpD5vEuPj4jl300l+dSg6sgeEN1K1bNPKWcjggHXCnIVzRN81gZXf0pVL0zM4Y9fkuuFcEXYkSFVhDOFR9OkyyWxolMiYKOohBHyJhCzbMI2cv3QeXBfi+oXrmJf+sTTuDf8LjTcBviZqKy843h8qszpEHdlD6OswUkv0v3XL1iRdiQI/0v9WeiVwLJ15q8sYwl+Hb9m1RQhzi6b0cNrQiFAh1Q2QJ+w1XfM2Ts5CtN20fSN1Wi+krowHR1D+XP+nkEQ7TRs1pcZNhdHeH+EKCOfUhT1gHRYeSfm4wjGH0568up67eM7/qT+DDXZVvHjxH/gusLl2+xrOyjHkyIqqVqoK1yHJFs48TkTyGw4ljAY+QmPq1K7DqyQs4dTZU2w2uMuBP3ucfxX26uxl/tQNGK+q2FYhm4uIjoBLl6RrnKILe/iQ9IE6V2Ec8ZH3ExOV3QcoC1wZQ9WqVbdt2RIXExMVEREXHf06LGz1qlUVypfnggknHxgR5rJa8J0j+pKU8CbhTQ6N/KNOvmvVqCUkP/b23du4ECtZsuQfK1aEh4S8+Rf/hLi43Tt31q9fn4RORjl6+ih12qbETw3Fx75Q4jv+E61cTQun68Ie3iTSU+vVEhCqdPP2jcRE+jbNmNGjH/n6uvXrh5ytsg5bWVn97OHx6MGD7t3pN2G+CHnxMoS+klGErFqVaiSCOIQNrwBJN3AK5irUjxHO3/JqDh+Gn78fla1D+/ZPHj8ePWpUqVKlZAxw3fZydb11/fq0qVOpVeClvXX3FrVIkVi9SnUqT3wC/S2iMosm6sIeuPYdy5Utx6v31RtXqTyDBw1a4eWFUH6yFFl1d+3Y0crJiSwC5dY9/kdSphQ9dV/iO7plUhsyEGICh87qgN+kceMD+/Zh343sI0bXRQsWjP7lF7LoC/gC7AEbo9S6CTrZvdaFPaSkUe6Nxatc0urrp4XafxAxZaSuHDBb/Z+XF2PCamJsvHbNGuqBEiR94GpOTud6JCmplI7wStMvQyqHzmWt6TavqC11cMB613vtWvZdmEsWLy5Du7w9+GVwZlYmGxCc1lJKGSHjp75FbFEiSnVhD9QzH4ikoHoSFPsQGxtLTf0woH9/+RyJq8+VbG3bt29PlsIjzuvowAKRrAhKimEcXqHqxkXk0vmHH4pwVZHRsWwICwsleVo6OtaqSVlfKXLiVMOQwYPJulgGYFOVpCtS8JkrXIiCP5dhs6WpWvp1voEOkG/enUd3/Z/xO2R4m6RaNvUboCSKKzypRQu6S1SpumOLFidOnlQiwhiwN8f2ayF6H+M+uXr2eeDj94Q+n+YFQc6A/b5qlar+WPdHxucA6Q5u3rsJj5aQsBR209TFA6rwHsTBhjR1+dvCwYHdoqwU4C+m8SW8TUA4La3kPxpVt+ehL9Zu82ZX5C1FxjSSR7G5r/Zga2v75InyRAIbMVxHnEmhqlLYA65MGnIPU8WWKFGCSlcicrEhKRC7Oj5ROOZLvg3Qh0sltkDFUsRHYaseDug+XfpQp3xJKclb92/FOli4TFU50S5snl2LCyUuVIWCz/FMFasDfFI3jC3U0DKSU1VK5cqV5VW+zpfatm2rqhQ1+XnnkZCPgAJqK1weJyVmLjYusYrVhahH1U0g8WXYq6CXQVTmm3dvaNUY0CjmQrzhJ1wocaGqSfAzedYYVNxEE52d/9uX/GoPo0ePpg5SotvgrUhOz8gqXLOaW7dvk8wk5eYtiisJE6HCBSnTU8XqMAbeNQbZnKqUmDcxBZFun/i9jnmtqigR/OTopyQEh0mo3+lbPj5CmrvN8YyK8K1bIDwtgz8+X4gOQngQzoiXX875db5UtmzZX3/9dcaMGUJEaIQHm3SYoLPT9eAYAx4JOXDv2r17lqcn24CjoqLOnKVsiCIFMu8+FHTTSB/ZQhq3aDJh9kSSZ9+p/XHxWve1v3//nrpsleuDOVX5cuWfv3yupOHlS5dCQkIqVqQE3sk5Mfhs276d7BoeN5fvTpFZZwne0Shee0VX2H/+pfHjx48dO5bsg5YogIw3xgs+2Zo1KK6MyMjIeQsWMBSDpU2YNAnx3iRPLQH7ULw+EFKsqhS8bd26daPW6tpVUMwpta5w4uso/lHIjhbQkZmVNXb8ePb4+duyZS9eUvY9K1esjIhJtpL4GOnMrz3u3z9Ffb7xty5fvnz79u3lueMd2D1RtfR1JP8jacFxsvaPlSuXeXlRQwlgaXhgR48do+pDDV9V4sTZUWpdTRFhDJ6eno0bN6YKnDhxopOTE7VIg0Qh4DtyZAo9f+HC8J9/xs1UVH28161btGQJtUgQ+NHaBV+mGF7yHTt2LFu2TEnPr/MlObV37974bl26dOnWrVtxcXHszwC1zyQRS4XDhw+T9MCgpw3r8+Qdc2zuuGXnZsQMk9XnzJ0LPT1nzIAHULZRjSd07vz5hYsXP35MOQMFCThugYQOpCglStALykoXTfTt25e3Li9DsWLFEE7StCnnqQ/k9D958uShQ4euX78uZJXF2yLAJ+UEPmMl3JbJrFypStUq1YKfU9DAlPXhw4ezZ8926dhRNnHFq4I1w2/Ll8NaqCqhX1yxw4r8XG4GDJsF1b7cDD5uBPU0a9YMa2jqtPnreVFqBzRFxFccUzTy9AKShP5vyQreVg4dO7h5O+W+QHlFBA7A3LM/fkQ2QuocSc45adSkRvV4UtpA25GTR5JLCESq3bypleydvAioyYB9yWvXrikJwTbI3m37GHsgMv6Hfg9nL5jFUADGgABKE1PTiIiId+9Yh65cu7j26sqfqHjx74vJMGTE4ERHR1PfYIZuIoq+mS+JqC+kCqYH1M9h8Ivg9x/e80ro5tKdnQwGy6+AgIDAZ8/YxoD83rzGAGUQmUwaA+j4qPCqapgMVPARNPBUQOhKPft6Ti1aMfqFkedZUJC/vz/bGGTpGhhyZEXQijo4N2jQQAfGAB10YQ9oxoG2qYkR9ur1K7wYYaIyfdIMuP94ORkMViWsRgwZwWCQF12/fZ3KJnBTnFpXv8Tmzeknvy9doZ9oV9J29M+jhQT/MfqImdL4EeO5NjQUK97xvUPdGNEZ+Dqyhy5dulD3Yi/+c5G6JlYCt4x1mfmz5lNPNjMeg7wI+xgzxs8QcjYSD4MagwkvdZs2OfXeoJYtW1IPS924fYN3FwIYou8LZi8saVVSCNQkDwIRJo+aXL4s56EUxSpXb9HDmXXjc4MmOrIHbInb2dmRYOE0wiNhmeKrV6vx28JlIp4KjqjjzoHSJUuTrZOUqzevUveGMQXHFJbkzxGUL3lDXFxIVTHVOX2O5+ybrBZGV6z0qlWln0wgJcspCFZdOHsh9YgPWQt7HUG0tXulSpXq1OE/ykcKFEHRkT1AMy7nzN6DewXqjVXEKq9V7Z3bU4caUggmWr169P79tz94N6RldREhc+ws3UvLpTzZqGFSuPQ/cvwIud1J7ULRIkWXL1zev89PJnyBT/Lq8A2uXeldsbwtVSBJPHyK4oQEW79+/UhmLVF04V+SqQ7/EkYJ6pJ39rTZTRursFoNDQ89dPTgTZ+bXNF1OKvl1MIJC3GkiMvKzMTVZkLgO3nuJDX5EpxXT58+5XXFCGlCXzyYlNatWzc4OJhUAK/4T31/IulcFJzuOnzsENYeVK8DamE4atKoSY+uPatWroqrR5Pf8+fnQy3/QP8lv1N2LSAtKChIfgqPSytN0XVnD9B41KhRW7ZQklyUKF4CV2Nh1aVSrzD3DXgaEPw8ODom6t/8rfmw5sYxF8ys4MmVuSNwKfWX/K3Zn3glxyfGI4Uo1cAWLVo0efJkXgkGzuDt7T1p0iRSSQC19g9vfDjIIgYFYylSDWAHCbECSSlJcI0gCUPpUqWrVK5qV9NOnuMsLTlV8d5XLoFYtk2bNw15x0gGjGxbt24l6Vqi6NQeXr58CS8+NYa8Q9sOY0d+s3OukQ5nZmQKSd6K+I7fVv6GTxTZKLbPMDhQz0aSzIZMwchcu3ZtePFJJfH5+G3BMurhW5JZOAU7QikfBJ0o3L5v+5mLZ0jJGJPv3LlTqxb/UW+yrjiK7tYP0A8Lo2HDhlEVPXvh7OWrgtx/1OpU4udPnzJS6TEFSvxHTx2lGgPYpk+fnguMAR3BN3vWLPrOGtJ0I48GFUPRRMzQ0lMEgY8LqqnGgKbd3Nx0aQxoUafjA9rDEVBMZKl7N7LLsjR1PxDawvWvH7OyeJ+oz32fVX+vorp9cUzqwYMHQo4u8bZiCAyY5CBoCsMdVZmJYyY6t9LYMZiMtPSMNJ5zV1AjJCxk4f8WUt2+MGCEhOgsmk6GiU7HBzSJpD1LOIK9MHefv2ReWHgo9WmpSsRMSYgxIDRgzaY1VGOAF2vNmjW5xhgAIGZEWEVwOQb+XPvnnXuCzjbwPgsk9BZiDDGxMctWLaMaA5qYN2+ejo0BjRohJIu3e5plwPiAYMHQ0FBSLA7iXL913a6WHW5iJ0uFU/AhxEqOl9/3kS/uHKBuiKKuu7s7HAC8QnIWgyyQ7O5dSppufBTgssPC2qa8jTqdwmIM16DwSkByJziUuI6AYhzDx0igY523LeEMup4vyTTDqg5BNZg7URXFJ3naxOnw2VFLeYmfPmanJKVQP/nyuii9cOXCtr3byKQBMh5MW69cuQK/LW9zOY4B43Dr1q0xD6Rqjldw6MBhuIJa3LuINRvW0Fyoylt8/OQxMrpSE6+Ap2jRovhiVqjAk3aAqr+aRP3YA5RGrGjHjh25vs1gwNUEQwcNU/XySTi8vxjDp88MXDBAb9qx6eZdzmBVLKChnuIxc4a0nFgUHh6OoKb4ePrtSugRPkYTRk9UNb4asGNkYJ8RQE6twycOHzl1hOuDhTN0CFCn5grSAdR6swf0DXsROLrKhQsYEGrxi8coZBoVCET2x2w8D4ZAyMEcaeverVyZbMCADaADBw60a9dOYKM5lO3GjRs46ELdHpX1CEFfGCiwrSlwoJBNk9hbPQjP2bxrMyKIGaDhUJouz2kqaaJPe4AqXl5ec+fOZaCTN09eJ0en3j378Cbt+ZiZlYp74j5zjgy4S2X/sf24HoXRHNaa2P3p1Ys/TJ8hJKcUnTp1Cg5NxhCNjiDndF/XfryZp798iZJZwzKyQR85eeTKzSvsrxW821hG6xFAPdsDer506dKFCxeyYcInqlmT5m1bOdev18Aon/It66gLb0ZmOt27h5ResIFzl8+Rp0yUcJe5XwYMGKDH56HjpjEzwY4QdVdeUZPaNWt3aNuxWeNmVG9bZnpmeio9IubT508I0bt07dLte7d5FxUTJkzAy6BjBJSa0789QKH169cjIII975TpjagyRDrhcwUfFDJegogvU1pKGpYNSh1DmM3ToKewgfuP7gs5nw5vN86OU+NA9fuEtN06ztxilKCeyFVqGhBhXWFvVxf4I8QGpZgdwRLIG3WRXzAwOPDps6f3Ht5DQj7eLuB7B0tARgteTm0zGIQ9oJOnT58ePnw4eaaU0X/YRpnSZYr+UBRHFpH9EqMEFspwWcS+iUWCDGrYNpc0eCH37t3bsCHPYW6u6jmdjuPmGBWfP1dOLcPoF5baAL9EsRJAHudS8ELj8Drwx7woOjaaK6M7VSBErVu3rmfPntRSHRMNxR7Q7bCwMHyosCWpYwiwdN68eTPilHTcrkE1h3RMHh4eJ06c0LFWCKnauXNntWrVdNwuV3O63p/m0gN0+Jtx7B1rCVUDXRky2UU4NfbXX38dPXr0OzcGoISU5vv378d3AXcJsEHTVCn8eFg9w81lOMaArhnQ+CAHGmH6SE905swZ9iJbnQcDPxIy62DOqrPAenW01WVdbEogZR2WUtjj11672BCEX1XHsXpCumOI9iDT28fHBw+GTJQipFcMHmz34DD3nDlzDPBhMNTWcRHWEgsWLDhy5IgQJ4dKuiEuAR52HSRcU0krObPh2oNMRQRjIo5l3759OPEjrofyWkWKFBk4cCBmybl441lNiJSq46wPXH/YNmXsZAtsES4PV1dXuEy4shIKlKNtNkO3B1n/4bu4fPkyto0vXryo6rNBqmZs/nfq1Akp2YSkPNE24jlOPiZOOJRz8OBB+AAR6KGS/ohEQl4SgI/YHK5bl1QSqG3mnGEPiii8ePECUync3vLq1SsEycI8cHEl4g7g8kMKDETgISEhsk/j6AKSMjRp0gT2oG0Qvx/5yJoO8P38/JDiG/gjIhPgY+jGXhvAxx+W4zY2NsAf01EMBbgQWWC4h4FgmPPswUCAk9TIlQgYkL81V+IrdSpnIfB/O/2Rfhy4z94AAAAASUVORK5CYII=;" vertex="1" parent="1">
          <mxGeometry x="332" y="140" width="86.59" height="70" as="geometry" />
        </mxCell>
        <mxCell id="XIHXmzrnx7aPzLWd52Pc-3" value="&lt;font style=&quot;font-size: 9px;&quot;&gt;PIR&lt;/font&gt;&lt;span style=&quot;font-size: 9px; background-color: transparent; color: light-dark(rgb(0, 0, 0), rgb(255, 255, 255));&quot;&gt;&amp;nbsp;0&lt;/span&gt;" style="rounded=1;whiteSpace=wrap;html=1;" vertex="1" parent="1">
          <mxGeometry x="434.29999999999995" y="-150" width="31.41" height="20" as="geometry" />
        </mxCell>
        <mxCell id="XIHXmzrnx7aPzLWd52Pc-4" value="Camper" style="rounded=0;whiteSpace=wrap;html=1;rotation=90;" vertex="1" parent="1">
          <mxGeometry x="390" y="-100" width="120" height="60" as="geometry" />
        </mxCell>
        <mxCell id="XIHXmzrnx7aPzLWd52Pc-5" value="&lt;font style=&quot;font-size: 9px;&quot;&gt;PIR&lt;/font&gt;&lt;span style=&quot;font-size: 9px; background-color: transparent; color: light-dark(rgb(0, 0, 0), rgb(255, 255, 255));&quot;&gt;&amp;nbsp;0&lt;/span&gt;" style="rounded=1;whiteSpace=wrap;html=1;" vertex="1" parent="1">
          <mxGeometry x="434.29999999999995" y="-10" width="31.41" height="20" as="geometry" />
        </mxCell>
        <mxCell id="XIHXmzrnx7aPzLWd52Pc-6" value="&lt;font style=&quot;font-size: 9px;&quot;&gt;PIR&lt;/font&gt;&lt;span style=&quot;font-size: 9px; background-color: transparent; color: light-dark(rgb(0, 0, 0), rgb(255, 255, 255));&quot;&gt;&amp;nbsp;1&lt;/span&gt;" style="rounded=1;whiteSpace=wrap;html=1;rotation=90;" vertex="1" parent="1">
          <mxGeometry x="478.5899999999999" y="-120" width="31.41" height="20" as="geometry" />
        </mxCell>
        <mxCell id="XIHXmzrnx7aPzLWd52Pc-7" value="&lt;font style=&quot;font-size: 9px;&quot;&gt;PIR&lt;/font&gt;&lt;span style=&quot;font-size: 9px; background-color: transparent; color: light-dark(rgb(0, 0, 0), rgb(255, 255, 255));&quot;&gt;&amp;nbsp;0&lt;/span&gt;" style="rounded=1;whiteSpace=wrap;html=1;rotation=90;" vertex="1" parent="1">
          <mxGeometry x="478.5899999999999" y="-50" width="31.41" height="20" as="geometry" />
        </mxCell>
      </root>
    </mxGraphModel>
  </diagram>
</mxfile>
